<svg id="svg" xmlns="http://www.w3.org/2000/svg" xmlns:xlink="http://www.w3.org/1999/xlink" width="400" height="265.1933701657459" viewBox="0, 0, 400,265.1933701657459"><g id="svgg"><path id="path0" d="M226.381 53.961 C 223.468 59.734,218.473 69.761,215.280 76.243 C 212.087 82.726,209.097 88.692,208.635 89.503 C 205.461 95.080,185.637 135.977,185.646 136.932 C 185.661 138.755,191.177 149.171,192.127 149.171 C 192.588 149.171,201.391 132.265,211.690 111.602 C 221.990 90.939,230.904 73.394,231.501 72.612 C 232.558 71.228,299.079 202.434,299.079 205.902 C 299.079 206.929,266.679 207.636,247.801 207.021 C 241.903 206.829,241.572 207.734,245.104 214.392 L 247.824 219.521 276.214 219.549 C 291.829 219.565,307.256 219.591,310.497 219.607 C 319.015 219.650,319.705 219.593,319.705 218.848 C 319.705 217.743,232.733 43.462,232.182 43.464 C 231.904 43.464,229.293 48.188,226.381 53.961 M136.207 117.215 C 132.058 125.473,126.875 135.875,124.689 140.331 C 114.488 161.126,111.562 166.869,111.050 167.096 C 110.746 167.231,110.497 167.683,110.497 168.100 C 110.497 168.517,104.885 180.086,98.025 193.809 C 91.165 207.532,85.858 218.949,86.231 219.180 C 87.102 219.718,156.886 219.621,157.761 219.080 C 159.022 218.300,162.987 209.287,162.559 208.172 C 162.184 207.193,158.550 207.044,134.342 207.016 C 119.059 206.999,106.378 206.807,106.161 206.590 C 105.609 206.039,143.099 131.576,144.063 131.309 C 144.780 131.110,160.684 162.485,190.148 222.227 C 199.770 241.737,202.827 247.084,203.665 245.874 C 206.014 242.485,248.987 154.118,248.987 152.676 C 248.987 145.814,242.142 138.520,240.515 143.649 C 240.195 144.661,239.152 146.725,238.198 148.236 C 237.244 149.747,236.464 151.162,236.464 151.380 C 236.464 153.314,203.659 217.309,202.673 217.298 C 201.901 217.289,200.445 215.124,198.588 211.220 C 192.118 197.626,145.101 103.554,144.451 102.904 C 144.007 102.460,140.981 107.712,136.207 117.215 " stroke="none" fill="#000000" fill-rule="evenodd"></path></g></svg>